<?xml version="1.0" encoding="UTF-8"?>
<svg width="104px" height="32px" viewBox="0 0 104 32" version="1.1" xmlns="http://www.w3.org/2000/svg" xmlns:xlink="http://www.w3.org/1999/xlink">
    <!-- Generator: sketchtool 40.3 (33839) - http://www.bohemiancoding.com/sketch -->
    <title>0572525B-28B9-434B-B313-69646A587FB4</title>
    <desc>Created with sketchtool.</desc>
    <defs>
        <polygon id="path-1" points="103.255995 0.00306382979 0 0.00306382979 0 31.6594723 103.255995 31.6594723 103.255995 0.00306382979"></polygon>
    </defs>
    <g id="Welcome" stroke="none" stroke-width="1" fill="none" fill-rule="evenodd">
        <g id="HOME" transform="translate(-513.000000, -1114.000000)">
            <g id="Group-29" transform="translate(442.000000, 822.000000)">
                <g id="Group-15" transform="translate(71.000000, 292.000000)">
                    <g id="Group-14">
                        <g id="Group-632" transform="translate(0.000000, 0.337464)">
                            <path d="M4.30047627,31.2909957 C2.13142563,31.2909957 0.367881329,29.5241872 0.367881329,27.3587404 L0.367881329,4.30444255 C0.367881329,2.13899574 2.13142563,0.371506383 4.30047627,0.371506383 L98.9549066,0.371506383 C101.123957,0.371506383 102.887502,2.13899574 102.887502,4.30444255 L102.887502,27.3587404 C102.887502,29.5241872 101.123957,31.2909957 98.9549066,31.2909957 L4.30047627,31.2909957 L4.30047627,31.2909957 Z" id="Fill-589" fill="#000000"></path>
                            <g id="Group-593">
                                <mask id="mask-2" fill="white">
                                    <use xlink:href="#path-1"></use>
                                </mask>
                                <g id="Clip-592"></g>
                                <path d="M98.9549747,0.00296170213 L4.3005443,0.00296170213 C1.93010127,0.00296170213 -0.000136075949,1.9348766 -0.000136075949,4.3042383 L-0.000136075949,27.3585362 C-0.000136075949,29.7282383 1.93010127,31.6594723 4.3005443,31.6594723 L98.9549747,31.6594723 C101.325758,31.6594723 103.255995,29.7282383 103.255995,27.3585362 L103.255995,4.3042383 C103.255995,1.9348766 101.325758,0.00296170213 98.9549747,0.00296170213 M98.9549747,0.739982979 C100.91787,0.739982979 102.521866,2.33828085 102.521866,4.3042383 L102.521866,27.3585362 C102.521866,29.3299404 100.91787,30.9231319 98.9549747,30.9231319 L4.3005443,30.9231319 C2.33560759,30.9231319 0.733653481,29.3299404 0.733653481,27.3585362 L0.733653481,4.3042383 C0.733653481,2.33828085 2.33560759,0.739982979 4.3005443,0.739982979 L98.9549747,0.739982979" id="Fill-591" fill="#FFFFFF" mask="url(#mask-2)"></path>
                            </g>
                            <path d="M23.4580649,15.6696511 C23.4383339,13.240034 25.4529383,12.0553532 25.5427484,12.0008851 C24.4034525,10.3328 22.6375269,10.113566 22.0153196,10.0938213 C20.5280095,9.93484255 19.0927484,10.9802894 18.339568,10.9802894 C17.5683576,10.9802894 16.4018465,10.1091404 15.1455253,10.1288851 C13.5337057,10.1540766 12.0212215,11.0899064 11.1928592,12.5482894 C9.48680696,15.505566 10.7604778,19.8565447 12.3964509,22.2507574 C13.215288,23.4208 14.1729225,24.7348426 15.4265222,24.6848 C16.6501851,24.6405447 17.1101218,23.9035234 18.5906282,23.9035234 C20.0558259,23.9035234 20.4854858,24.6848 21.7642595,24.6602894 C23.0773924,24.6405447 23.9057547,23.4752681 24.6970364,22.3008 C25.6471867,20.9564596 26.0230965,19.6274383 26.0428275,19.5627574 C26.007788,19.5525447 23.4856203,18.5870979 23.4580649,15.6696511" id="Fill-594" fill="#FFFFFF"></path>
                            <path d="M21.0480237,8.51608511 C21.7022089,7.68987234 22.1550016,6.56919149 22.0308323,5.42944681 C21.0776203,5.4692766 19.883894,6.08646809 19.1946693,6.89804255 C18.5904921,7.60987234 18.0455079,8.77514894 18.1849858,9.86995745 C19.2596456,9.94961702 20.3560775,9.32697872 21.0480237,8.51608511" id="Fill-596" fill="#FFFFFF"></path>
                            <path d="M38.2805459,20.3294638 L37.4324525,17.7058043 C37.3426424,17.441634 37.1762896,16.8094638 36.9299921,15.8140596 L36.8973339,15.8140596 C36.8007199,16.2372085 36.6387896,16.8741447 36.4176661,17.7058043 L35.5842009,20.3294638 L38.2805459,20.3294638 Z M41.2157041,24.5156766 L39.5014873,24.5156766 L38.5669858,21.5686128 L35.3055854,21.5686128 L34.4098655,24.5156766 L32.7412342,24.5156766 L35.9723576,14.4697191 L37.9699525,14.4697191 L41.2157041,24.5156766 Z" id="Fill-598" fill="#FFFFFF"></path>
                            <path d="M47.876894,20.8667574 C47.876894,20.1648 47.7153038,19.577566 47.3968861,19.1244596 C47.0536345,18.6468426 46.5858734,18.4075234 45.9987057,18.4075234 C45.6034051,18.4075234 45.2400823,18.5372255 44.9192832,18.8007149 C44.5957627,19.0648851 44.3868861,19.4134809 44.2875506,19.8366298 C44.2375427,20.0354383 44.2106677,20.1998638 44.2106677,20.329566 L44.2106677,21.5339915 C44.2106677,22.0616511 44.3746392,22.5045447 44.6954383,22.8732255 C45.0189589,23.2368 45.4394335,23.4155234 45.9565222,23.4155234 C46.5586582,23.4155234 47.031182,23.1765447 47.3696709,22.7186723 C47.7050981,22.2509277 47.876894,21.6333957 47.876894,20.8667574 M49.516269,20.807183 C49.516269,22.0368 49.1805016,23.0124596 48.5110079,23.7290553 C47.9115934,24.361566 47.1631756,24.6802043 46.2800427,24.6802043 C45.3196867,24.6802043 44.6308022,24.3367149 44.2106677,23.6497362 L44.2106677,27.4580766 L42.6008892,27.4580766 L42.6008892,19.6572255 C42.6008892,18.8807149 42.5835396,18.0888851 42.5464589,17.2773106 L43.9589272,17.2773106 L44.0511187,18.4225021 L44.0786741,18.4225021 C44.6134525,17.5564596 45.4292278,17.1230979 46.5212373,17.1230979 C47.3768149,17.1230979 48.0908734,17.4621617 48.6579699,18.1389277 C49.2298291,18.816034 49.516269,19.7069277 49.516269,20.807183" id="Fill-600" fill="#FFFFFF"></path>
                            <path d="M56.2023267,20.8667574 C56.2023267,20.1648 56.0427777,19.577566 55.7219786,19.1244596 C55.3766859,18.6468426 54.9113062,18.4075234 54.3265198,18.4075234 C53.9288378,18.4075234 53.5706179,18.5372255 53.2419945,18.8007149 C52.9211954,19.0648851 52.7123188,19.4134809 52.6129834,19.8366298 C52.5629755,20.0354383 52.5354201,20.1998638 52.5354201,20.329566 L52.5354201,21.5339915 C52.5354201,22.0616511 52.700072,22.5045447 53.0229122,22.8732255 C53.3413299,23.2368 53.7597634,23.4155234 54.2843362,23.4155234 C54.8888536,23.4155234 55.3566147,23.1765447 55.6968046,22.7186723 C56.0332524,22.2509277 56.2023267,21.6333957 56.2023267,20.8667574 M57.8389802,20.807183 C57.8389802,22.0368 57.505254,23.0124596 56.8364407,23.7290553 C56.2370261,24.361566 55.4981337,24.6802043 54.6051353,24.6802043 C53.6502223,24.6802043 52.956235,24.3367149 52.5354201,23.6497362 L52.5354201,27.4580766 L50.9314248,27.4580766 L50.9314248,19.6572255 C50.9314248,18.8807149 50.9089723,18.0888851 50.8691701,17.2773106 L52.2819786,17.2773106 L52.3741701,18.4225021 L52.4064881,18.4225021 C52.9409264,17.5564596 53.7519391,17.1230979 54.8466701,17.1230979 C55.6995261,17.1230979 56.4112033,17.4621617 56.9881653,18.1389277 C57.5552619,18.816034 57.8389802,19.7069277 57.8389802,20.807183" id="Fill-602" fill="#FFFFFF"></path>
                            <path d="M67.151644,21.6981787 C67.151644,22.5597957 66.8529573,23.2515404 66.2586456,23.7894128 C65.6020791,24.3766468 64.691731,24.6649872 63.5276013,24.6649872 C62.4430759,24.6649872 61.5749114,24.4610723 60.9254889,24.0430298 L61.2962959,22.7037957 C62.0025301,23.1167319 62.7761218,23.3257532 63.6194525,23.3257532 C64.2266915,23.3257532 64.6961535,23.191966 65.0326013,22.9179234 C65.3758528,22.6442213 65.5425459,22.2809872 65.5425459,21.8275404 C65.5425459,21.4142638 65.397625,21.0711149 65.121731,20.7923064 C64.8482184,20.5186043 64.3879415,20.2595404 63.7412405,20.0205617 C61.9780364,19.3635404 61.0996661,18.4025191 61.0996661,17.1432851 C61.0996661,16.3163915 61.412981,15.6447319 62.0273639,15.111966 C62.6495712,14.5894128 63.475212,14.3252426 64.5002041,14.3252426 C65.4078307,14.3252426 66.171557,14.4797957 66.7760744,14.8035404 L66.3732896,16.1124766 C65.8058528,15.8043915 65.1618734,15.6549447 64.4406709,15.6549447 C63.8779968,15.6549447 63.4330285,15.7890723 63.1118892,16.0678809 C62.8462009,16.3163915 62.7114858,16.6203915 62.7114858,16.9788596 C62.7114858,17.3774979 62.8635506,17.7056681 63.1714225,17.9647319 C63.4405127,18.2037106 63.9229019,18.4576681 64.6294763,18.7364766 C65.492538,19.0898383 66.1293734,19.4929021 66.5372611,19.9609872 C66.9475301,20.4236255 67.151644,21.006434 67.151644,21.6981787" id="Fill-604" fill="#FFFFFF"></path>
                            <path d="M72.4847326,18.4820766 L70.7082611,18.4820766 L70.7082611,22.0020766 C70.7082611,22.8929702 71.0215759,23.3413106 71.6461646,23.3413106 C71.9326044,23.3413106 72.1734589,23.3161191 72.3626044,23.2613106 L72.4071693,24.4912681 C72.0887516,24.6053106 71.6737199,24.6652255 71.1586725,24.6652255 C70.5194557,24.6652255 70.0268608,24.471183 69.663538,24.0827574 C69.3080396,23.6943319 69.1318212,23.0475234 69.1318212,22.1314383 L69.1318212,18.4820766 L68.0717896,18.4820766 L68.0717896,17.2725447 L69.1318212,17.2725447 L69.1318212,15.9435234 L70.7082611,15.4703319 L70.7082611,17.2725447 L72.4847326,17.2725447 L72.4847326,18.4820766 Z" id="Fill-606" fill="#FFFFFF"></path>
                            <path d="M78.7949146,20.8769362 C78.7949146,20.2097021 78.6584984,19.6422128 78.3649146,19.1693617 C78.0339098,18.5916596 77.5436962,18.3029787 76.9242104,18.3029787 C76.280231,18.3029787 75.7852547,18.5916596 75.447106,19.1693617 C75.1562437,19.6422128 75.0164256,20.2243404 75.0164256,20.9017872 C75.0164256,21.5686809 75.1562437,22.1361702 75.447106,22.6141277 C75.7927389,23.1918298 76.280231,23.4750638 76.9095823,23.4750638 C77.5239652,23.4750638 78.0063544,23.181617 78.3523275,22.5994894 C78.6506741,22.1116596 78.7949146,21.5339574 78.7949146,20.8769362 M80.4642263,20.8418723 C80.4642263,21.9468936 80.1434272,22.8680851 79.5116946,23.5795745 C78.8473038,24.3169362 77.9641709,24.6801702 76.8595744,24.6801702 C75.7954604,24.6801702 74.9545111,24.3315745 74.3176756,23.6245106 C73.6883244,22.9181277 73.3753497,22.0316596 73.3753497,20.9617021 C73.3753497,19.8365957 73.7009114,18.9154043 74.3527152,18.2035745 C74.9990759,17.4818723 75.8774462,17.1230638 76.9817025,17.1230638 C78.0441155,17.1230638 78.8945902,17.476766 79.5412911,18.1838298 C80.1607769,18.8704681 80.4642263,19.7565957 80.4642263,20.8418723" id="Fill-608" fill="#FFFFFF"></path>
                            <path d="M85.6924003,18.6915745 C85.535913,18.661617 85.3668386,18.6466383 85.1899399,18.6466383 C84.620462,18.6466383 84.1822975,18.860766 83.876807,19.2890213 C83.6104383,19.6621277 83.4740222,20.1448511 83.4740222,20.7174468 L83.4740222,24.5155745 L81.8673054,24.5155745 L81.8673054,19.557617 C81.8673054,18.7262979 81.8492753,17.964766 81.8224003,17.2774468 L83.2202405,17.2774468 L83.2797737,18.661617 L83.3219573,18.661617 C83.4961345,18.184 83.762163,17.8051064 84.1305886,17.5164255 C84.486087,17.2525957 84.8718623,17.1228936 85.2919968,17.1228936 C85.4413402,17.1228936 85.5729937,17.1382128 85.6924003,17.1531915 L85.6924003,18.6915745 Z" id="Fill-610" fill="#FFFFFF"></path>
                            <path d="M91.3539763,20.1398468 C91.3662231,19.6622298 91.2641661,19.2441872 91.0403212,18.9006979 C90.764087,18.4472511 90.3368085,18.2235915 89.7618877,18.2235915 C89.2342532,18.2235915 88.8090158,18.4424851 88.4807326,18.8806128 C88.2143639,19.2339745 88.0531139,19.652017 88.0054873,20.1354213 L91.3539763,20.1398468 Z M92.8909541,20.5531234 C92.8909541,20.8418043 92.8708829,21.0858894 92.8286994,21.2853787 L88.0054873,21.2853787 C88.0255585,22.0019745 88.259269,22.5442723 88.7025364,22.9228255 C89.1100839,23.2612085 89.635337,23.4307404 90.2789763,23.4307404 C91.000519,23.4307404 91.6475601,23.3214638 92.2343877,23.0872511 L92.4878291,24.2072511 C91.8037073,24.5010383 90.9954161,24.6552511 90.0626155,24.6552511 C88.9362468,24.6552511 88.0531139,24.3219745 87.413557,23.6642723 C86.7767215,23.0028255 86.4535411,22.1163574 86.4535411,21.0014638 C86.4535411,19.9110809 86.7518877,19.0052085 87.3489209,18.2729532 C87.9735095,17.5018894 88.8192215,17.1134638 89.8785728,17.1134638 C90.9236361,17.1134638 91.7166187,17.5018894 92.2490158,18.2729532 C92.6769747,18.8904851 92.8909541,19.652017 92.8909541,20.5531234 L92.8909541,20.5531234 Z" id="Fill-612" fill="#FFFFFF"></path>
                            <path d="M36.0640728,8.81940426 L35.6490411,7.53021277 C35.6014146,7.39574468 35.5245316,7.09242553 35.4003623,6.59948936 L35.3850538,6.59948936 C35.3330047,6.81361702 35.2561218,7.1172766 35.1493022,7.53021277 L34.738693,8.81940426 L36.0640728,8.81940426 Z M37.506818,10.8803404 L36.661106,10.8803404 L36.2062722,9.42706383 L34.6015965,9.42706383 L34.1590095,10.8803404 L33.33575,10.8803404 L34.9274984,5.94212766 L35.9126883,5.94212766 L37.506818,10.8803404 Z" id="Fill-614" fill="#FFFFFF"></path>
                            <path d="M41.4791472,7.31608511 L40.1336962,10.8803404 L39.3652073,10.8803404 L38.0588782,7.31608511 L38.909693,7.31608511 L39.516932,9.2027234 C39.6237516,9.51148936 39.7108402,9.81038298 39.7707136,10.0990638 L39.7955475,10.0990638 C39.8499778,9.84510638 39.939788,9.54110638 40.0493291,9.2027234 L40.6484035,7.31608511 L41.4791472,7.31608511 Z" id="Fill-616" fill="#FFFFFF"></path>
                            <path d="M44.2376448,9.10335319 C43.3572334,9.10335319 42.919409,9.31237447 42.919409,9.81994894 C42.919409,10.1937362 43.1483568,10.3779064 43.4592903,10.3779064 C43.8647967,10.3779064 44.2376448,10.0694809 44.2376448,9.65586383 L44.2376448,9.10335319 Z M44.3471859,10.8803745 L44.290034,10.4674383 L44.2624786,10.4674383 C44.0287682,10.7959489 43.6756511,10.9603745 43.2279612,10.9603745 C42.5887445,10.9603745 42.1383331,10.5072681 42.1383331,9.90982128 C42.1383331,9.03356596 42.8972967,8.57569362 44.2179138,8.57569362 L44.2179138,8.51101277 C44.2179138,8.04292766 43.9665134,7.80905532 43.47664,7.80905532 C43.1211416,7.80905532 42.8149707,7.89892766 42.5489422,8.07322553 L42.3849707,7.55509787 C42.7180166,7.3460766 43.1286258,7.24156596 43.6086337,7.24156596 C44.5387128,7.24156596 45.0064739,7.7341617 45.0064739,8.71492766 L45.0064739,10.0289702 C45.0064739,10.3881191 45.0238236,10.6662468 45.0564818,10.8803745 L44.3471859,10.8803745 Z" id="Fill-618" fill="#FFFFFF"></path>
                            <path d="M46.3893117,10.8803404 L47.1829747,10.8803404 L47.1829747,7.31608511 L46.3893117,7.31608511 L46.3893117,10.8803404 Z M46.7723655,6.73395745 C46.5059968,6.73395745 46.2998418,6.52425532 46.2998418,6.25055319 C46.2998418,5.98195745 46.5110997,5.78280851 46.782231,5.78280851 C47.0537025,5.78280851 47.2748259,5.98195745 47.267682,6.25055319 C47.267682,6.53957447 47.0608465,6.73395745 46.7723655,6.73395745 L46.7723655,6.73395745 Z" id="Fill-620" fill="#FFFFFF"></path>
                            <polygon id="Fill-622" fill="#FFFFFF" points="48.5835364 10.8803404 49.3741377 10.8803404 49.3741377 5.68340426 48.5835364 5.68340426"></polygon>
                            <path d="M52.6251622,9.10335319 C51.745091,9.10335319 51.3069264,9.31237447 51.3069264,9.81994894 C51.3069264,10.1937362 51.5362144,10.3779064 51.8468078,10.3779064 C52.2523141,10.3779064 52.6251622,10.0694809 52.6251622,9.65586383 L52.6251622,9.10335319 Z M52.7398062,10.8803745 L52.6775514,10.4674383 L52.6550989,10.4674383 C52.4162856,10.7959489 52.06589,10.9603745 51.6154786,10.9603745 C50.9786432,10.9603745 50.5207476,10.5072681 50.5207476,9.90982128 C50.5207476,9.03356596 51.2844739,8.57569362 52.6027097,8.57569362 L52.6027097,8.51101277 C52.6027097,8.04292766 52.3540309,7.80905532 51.8665388,7.80905532 C51.5110403,7.80905532 51.2048695,7.89892766 50.9337381,8.07322553 L50.7745293,7.55509787 C51.105534,7.3460766 51.5110403,7.24156596 51.9961511,7.24156596 C52.9262302,7.24156596 53.3963726,7.7341617 53.3963726,8.71492766 L53.3963726,10.0289702 C53.3963726,10.3881191 53.411341,10.6662468 53.4412777,10.8803745 L52.7398062,10.8803745 Z" id="Fill-623" fill="#FFFFFF"></path>
                            <path d="M56.4361052,7.86359149 C55.980591,7.86359149 55.5679407,8.26222979 55.5679407,8.80963404 L55.5679407,9.43227234 C55.5679407,9.92452766 55.9384074,10.323166 56.4207967,10.323166 C57.0154486,10.323166 57.3689059,9.84520851 57.3689059,9.0731234 C57.3689059,8.35652766 57.0032017,7.86359149 56.4361052,7.86359149 M56.5949739,10.9604426 C56.095235,10.9604426 55.7193252,10.7463149 55.4784707,10.323166 L55.461121,10.323166 L55.4189375,10.8804426 L54.744341,10.8804426 C54.7667935,10.5917617 54.7742777,10.2731234 54.7742777,9.92010213 L54.7742777,5.68316596 L55.5679407,5.68316596 L55.5679407,7.83908085 L55.582909,7.83908085 C55.8142381,7.44044255 56.1945704,7.2464 56.7167619,7.2464 C57.5726796,7.2464 58.1720941,7.97831489 58.1720941,9.04895319 C58.1720941,10.1488681 57.505322,10.9604426 56.5949739,10.9604426" id="Fill-624" fill="#FFFFFF"></path>
                            <polygon id="Fill-625" fill="#FFFFFF" points="59.3386392 10.8803404 60.1323022 10.8803404 60.1323022 5.68340426 59.3386392 5.68340426"></polygon>
                            <path d="M63.7090245,8.72510638 C63.7090245,8.17259574 63.4327903,7.7892766 62.9279486,7.7892766 C62.470053,7.7892766 62.1169359,8.18212766 62.0601242,8.72510638 L63.7090245,8.72510638 Z M64.4329486,9.28748936 L62.0601242,9.28748936 C62.0747524,9.95982979 62.5251638,10.3431489 63.1844517,10.3431489 C63.5348473,10.3431489 63.8583679,10.2828936 64.1393647,10.178383 L64.2662555,10.7264681 C63.923004,10.8708085 63.5348473,10.9405957 63.0721891,10.9405957 C61.9580672,10.9405957 61.3011606,10.2386383 61.3011606,9.14825532 C61.3011606,8.05787234 61.9730356,7.23642553 62.9851005,7.23642553 C63.8883046,7.23642553 64.460504,7.90842553 64.460504,8.92391489 C64.4676479,9.06859574 64.460504,9.18808511 64.4329486,9.28748936 L64.4329486,9.28748936 Z" id="Fill-626" fill="#FFFFFF"></path>
                            <path d="M69.2560585,7.81923404 C68.6886218,7.81923404 68.3208766,8.35642553 68.3208766,9.10331915 C68.3208766,9.83523404 68.696106,10.372766 69.2485744,10.372766 C69.8058054,10.372766 70.175932,9.80017021 70.175932,9.08357447 C70.175932,8.3666383 69.8129494,7.81923404 69.2560585,7.81923404 M69.2234003,10.9603404 C68.1912642,10.9603404 67.5122453,10.178383 67.5122453,9.12817021 C67.5122453,8.02825532 68.2011297,7.24153191 69.2829335,7.24153191 C70.3079256,7.24153191 70.9971503,7.98331915 70.9971503,9.06859574 C70.9971503,10.178383 70.2905759,10.9603404 69.2234003,10.9603404" id="Fill-627" fill="#FFFFFF"></path>
                            <path d="M75.2503402,10.8804085 L74.4617801,10.8804085 L74.4617801,8.82968511 C74.4617801,8.20194043 74.2182041,7.88840851 73.7429589,7.88840851 C73.2779193,7.88840851 72.9523576,8.29181277 72.9523576,8.75989787 L72.9523576,10.8804085 L72.1610759,10.8804085 L72.1610759,8.33674894 C72.1610759,8.01811064 72.1535918,7.68483404 72.1338608,7.31615319 L72.8275079,7.31615319 L72.865269,7.86355745 L72.885,7.86355745 C73.0938766,7.48534468 73.5289794,7.2416 74.0164715,7.2416 C74.7604668,7.2416 75.2503402,7.81419574 75.2503402,8.74491915 L75.2503402,10.8804085 Z" id="Fill-628" fill="#FFFFFF"></path>
                            <path d="M80.4264992,7.90842553 L79.5539122,7.90842553 L79.5539122,9.64119149 C79.5539122,10.0789787 79.7103995,10.2982128 80.0138489,10.2982128 C80.150265,10.2982128 80.2700119,10.2828936 80.366966,10.2631489 L80.386697,10.8605957 C80.2302097,10.9201702 80.0260957,10.9450213 79.7699328,10.9450213 C79.1507872,10.9450213 78.7799802,10.6015319 78.7799802,9.70587234 L78.7799802,7.90842553 L78.2577888,7.90842553 L78.2577888,7.31608511 L78.7799802,7.31608511 L78.7799802,6.66417021 L79.5539122,6.42995745 L79.5539122,7.31608511 L80.4264992,7.31608511 L80.4264992,7.90842553 Z" id="Fill-629" fill="#FFFFFF"></path>
                            <path d="M84.607807,10.8804085 L83.8172057,10.8804085 L83.8172057,8.84942979 C83.8172057,8.20704681 83.5732896,7.88840851 83.1004256,7.88840851 C82.6877753,7.88840851 82.3125459,8.16755745 82.3125459,8.73028085 L82.3125459,10.8804085 L81.5185427,10.8804085 L81.5185427,5.68347234 L82.3125459,5.68347234 L82.3125459,7.81930213 L82.3271741,7.81930213 C82.5731313,7.43598298 82.9337326,7.2416 83.3943497,7.2416 C84.1478703,7.2416 84.607807,7.82883404 84.607807,8.75989787 L84.607807,10.8804085 Z" id="Fill-630" fill="#FFFFFF"></path>
                            <path d="M87.9236377,8.72510638 C87.9236377,8.17259574 87.6423006,7.7892766 87.1425617,7.7892766 C86.689769,7.7892766 86.3315491,8.18212766 86.2747373,8.72510638 L87.9236377,8.72510638 Z M88.6475617,9.28748936 L86.2747373,9.28748936 C86.2893655,9.95982979 86.7346741,10.3431489 87.3990649,10.3431489 C87.7494604,10.3431489 88.0702595,10.2828936 88.3539778,10.178383 L88.4808687,10.7264681 C88.1451013,10.8708085 87.7494604,10.9405957 87.2844209,10.9405957 C86.1726804,10.9405957 85.5133924,10.2386383 85.5133924,9.14825532 C85.5133924,8.05787234 86.1876487,7.23642553 87.1997136,7.23642553 C88.1080206,7.23642553 88.6751171,7.90842553 88.6751171,8.92391489 C88.6802199,9.06859574 88.6723956,9.18808511 88.6475617,9.28748936 L88.6475617,9.28748936 Z" id="Fill-631" fill="#FFFFFF"></path>
                        </g>
                    </g>
                </g>
            </g>
        </g>
    </g>
</svg>